<svg xmlns="http://www.w3.org/2000/svg" viewBox="0 0 940.31 895.2">
  <style>
    .gs-brand-grace { fill: #372aac; }
    .gs-brand-soft { fill: #101011; }
    .gs-brand-product { fill: #606060; }
    @media (prefers-color-scheme: dark) {
      .gs-brand-grace { fill: #a79fe4; }
      .gs-brand-soft { fill: #f5f5f5; }
      .gs-brand-product { fill: #b3b3b3; }
    }
  </style>
  <path class="gs-brand-grace" d="M202.68,418c-40.96,0-76.75-7.46-107.37-22.39-30.63-14.93-54.16-35.69-70.62-62.3C8.23,306.71,0,275.99,0,241.16s6.12-66.98,18.38-96.46c12.24-29.47,29.47-55.02,51.67-76.65,22.2-21.62,48.71-38.37,79.53-50.24C180.39,5.94,214.54,0,252.07,0s70.05,6.51,98.76,19.52c28.71,13.02,50.15,31.78,64.31,56.27l-81.54,65.46c-9.57-15.31-21.73-26.99-36.45-35.03-14.74-8.04-32.26-12.06-52.54-12.06s-37.23,3.45-53.11,10.33c-15.89,6.89-29.57,16.65-41.06,29.29-11.48,12.63-20.29,27.47-26.41,44.5-6.13,17.04-9.19,35.51-9.19,55.41,0,18,3.93,33.79,11.78,47.37,7.83,13.59,19.13,24.11,33.87,31.58s32.25,11.2,52.54,11.2c17.98,0,35.31-3.73,51.96-11.2,16.65-7.46,32.05-19.24,46.22-35.31l67.18,66.03c-22.58,27.18-48.61,46.42-78.09,57.7-29.48,11.29-62.01,16.94-97.61,16.94Z" />
  <path class="gs-brand-soft" d="M731.89,416.85c-40.96,0-76.37-7.36-106.22-22.11-29.86-14.73-52.73-35.11-68.61-61.15-15.89-26.03-23.83-56.46-23.83-91.29s6.03-65.83,18.09-95.31c12.06-29.47,29.08-55.02,51.1-76.65,22.01-21.62,48.24-38.56,78.66-50.82,30.43-12.25,64.4-18.38,101.92-18.38s67.75,6.13,95.31,18.38c27.56,12.25,48.23,29.67,62.01,52.25l-67.18,55.12c-9.96-14.93-22.97-26.5-39.04-34.74-16.08-8.23-35.22-12.34-57.42-12.34s-43.07,4.02-61.44,12.06c-18.37,8.04-34.16,19.24-47.37,33.59-13.2,14.35-23.25,31-30.14,49.95-6.89,18.95-10.33,39.33-10.33,61.15,0,20.29,4.3,38,12.91,53.11,8.61,15.13,21.44,26.98,38.47,35.6,17.03,8.61,37.41,12.92,61.15,12.92,20.67,0,40-3.82,58-11.48,17.98-7.65,34.25-19.52,48.81-35.6l54.55,56.27c-20.67,24.5-45.36,42.2-74.07,53.11-28.71,10.91-60.49,16.36-95.31,16.36Z" />
  <polygon class="gs-brand-product" points="224.56 676.33 436.61 491.56 343.38 491.56 112.74 692.51 152.93 491.56 79.59 491.56 0 889.52 73.34 889.52 93.57 788.36 170.09 721.88 282.55 889.52 365.55 889.52 223.83 676.94 224.56 676.33" />
  <path class="gs-brand-product" d="M695.85,895.2c-39.8,0-73.9-7.1-102.33-21.32-28.43-14.21-50.13-34.11-65.1-59.69-14.97-25.58-22.45-55.23-22.45-88.97s5.68-64.53,17.05-93.53,27.86-54.48,49.46-76.46c21.6-21.98,47.28-39.03,77.03-51.17,29.75-12.12,63.01-18.19,99.77-18.19,40.17,0,74.56,7.11,103.18,21.32,28.61,14.21,50.4,34.11,65.38,59.69,14.97,25.58,22.46,55.25,22.46,88.98s-5.88,64.52-17.62,93.52c-11.75,28.99-28.34,54.48-49.75,76.46-21.42,21.99-47.09,39.05-77.03,51.17-29.95,12.14-63.3,18.19-100.06,18.19ZM702.67,830.39c25.01,0,47.56-4.45,67.66-13.36,20.08-8.91,37.24-21.22,51.45-36.96,14.21-15.72,25.01-33.82,32.4-54.29,7.39-20.46,11.09-42.26,11.09-65.37,0-21.61-4.65-40.74-13.93-57.42-9.29-16.67-23.02-29.56-41.22-38.65-18.19-9.1-40.56-13.65-67.08-13.65-24.64,0-47.1,4.46-67.37,13.36-20.28,8.91-37.52,21.23-51.73,36.95-14.21,15.73-25.11,33.83-32.69,54.29-7.59,20.46-11.37,42.26-11.37,65.38,0,21.6,4.73,40.74,14.21,57.42,9.47,16.69,23.31,29.56,41.5,38.66,18.19,9.09,40.55,13.64,67.08,13.64Z" />
</svg>
